<?xml version="1.0" encoding="utf-8"?>
<!-- Generator: Adobe Illustrator 21.0.2, SVG Export Plug-In . SVG Version: 6.00 Build 0)  -->
<svg version="1.1" id="Layer_1" xmlns="http://www.w3.org/2000/svg" xmlns:xlink="http://www.w3.org/1999/xlink" x="0px" y="0px"
	 viewBox="0 0 90 89.8" style="enable-background:new 0 0 90 89.8;" xml:space="preserve">
<g>
	<path d="M87.1,40.6c-0.1-0.4-0.1-0.7-0.2-1.1l0,0C87,39.9,87.1,40.3,87.1,40.6z"/>
	<path d="M84.7,56.4c1.7,2.3,1.6,5.7-0.6,7.8c-2.4,2.3-6.1,2.3-8.5,0c0,0,0,0,0,0C79.4,62.6,82.5,59.8,84.7,56.4z"/>
	<path d="M86.9,39.6c0.1,0.4,0.2,0.7,0.2,1.1C87.1,40.3,87,39.9,86.9,39.6L86.9,39.6c-1.9-9-9.9-15.8-19.5-15.8
		c-9.8,0-18,7.1-19.6,16.5H42c-1.6-9.4-9.8-16.5-19.6-16.5c-9.6,0-17.6,6.8-19.5,15.8C1.2,40.3,0,42,0,43.9c0,2,1.3,3.7,3,4.4
		c-0.1-0.5-0.2-1-0.3-1.5c0.1,0.4,0.2,0.9,0.3,1.5c2.1,9,10,15.3,19.4,15.3c10.1,0,18.5-7.5,19.8-17.3h5.5
		c1.3,9.8,9.6,17.4,19.8,17.4c9.4,0,17.3-6.5,19.4-15.3c1.8-0.6,3.2-2.4,3.2-4.4C90,41.9,88.7,40.2,86.9,39.6z M22.5,61
		C13,61,5.3,53.3,5.3,43.9c0-9.5,7.7-17.1,17.1-17.1c9.5,0,17.1,7.7,17.1,17.1C39.6,53.3,32,61,22.5,61z M67.5,61
		c-9.5,0-17.1-7.7-17.1-17.1c0-9.5,7.7-17.1,17.1-17.1c9.5,0,17.2,7.7,17.2,17.1C84.7,53.3,77,61,67.5,61z"/>
	<path d="M13.6,63.1C13.6,63.1,13.6,63.1,13.6,63.1c-2.4,2.4-6.2,2.4-8.5,0C3,61,2.8,57.7,4.5,55.4C6.7,58.8,9.8,61.5,13.6,63.1z"/>
	<path d="M86.9,39.6L86.9,39.6c0.1,0.4,0.1,0.7,0.2,1.1C87.1,40.3,87,39.9,86.9,39.6z"/>
	<path d="M9.8,40.3c-0.1,0.1-0.4,0-0.6-0.2l0,0c-0.2-0.2-0.2-0.5-0.1-0.6L21,29.9c0.1-0.1,0.4,0,0.6,0.2l0,0
		c0.2,0.2,0.2,0.5,0.1,0.6L9.8,40.3z"/>
	<path d="M11.8,42.7c-0.1,0.1-0.4,0-0.6-0.2l0,0C11,42.3,11,42,11.1,41.9L23,32.3c0.1-0.1,0.4,0,0.6,0.2l0,0
		c0.2,0.2,0.2,0.5,0.1,0.6L11.8,42.7z"/>
	<path d="M54.9,40.3c-0.1,0.1-0.4,0-0.6-0.2l0,0c-0.2-0.2-0.2-0.5-0.1-0.6l11.9-9.6c0.1-0.1,0.4,0,0.6,0.2l0,0
		c0.2,0.2,0.2,0.5,0.1,0.6L54.9,40.3z"/>
	<path d="M56.8,42.7c-0.1,0.1-0.4,0-0.6-0.2l0,0c-0.2-0.2-0.2-0.5-0.1-0.6L68,32.3c0.1-0.1,0.4,0,0.6,0.2l0,0
		c0.2,0.2,0.2,0.5,0.1,0.6L56.8,42.7z"/>
</g>
</svg>
