<?xml version="1.0" encoding="utf-8"?>
<!-- Generator: Adobe Illustrator 21.0.2, SVG Export Plug-In . SVG Version: 6.00 Build 0)  -->
<svg version="1.1" id="Layer_1" xmlns="http://www.w3.org/2000/svg" xmlns:xlink="http://www.w3.org/1999/xlink" x="0px" y="0px"
	 viewBox="0 0 127.7 127.6" style="enable-background:new 0 0 127.7 127.6;" xml:space="preserve">
<g>
	<path d="M1469.7,2699.7c1.8,1.9,0.7,6.6,1,10c9.8,0.5,21.8-1.1,30,1c8.3,38.5-14.8,66.7-40,82c-9,5.5-18.4,8.3-28,13
		c-13.5,6.6-22.3,20.4-35,25c-6.4,29.7,20.5,26.2,22,48c7.2,4.8,15.2,8.8,15,21c-31.7,2.3-67.6,0.3-101,1c-0.6-13.3,7.7-17.7,16-22
		c0.3-16.4,13.9-19.5,21-29c0-6,0-12,0-18c-10.5-9.2-23.8-15.5-33-26c-20.3-5.4-40.9-15.9-54-31c-12.8-14.8-21.1-40.1-16-64
		c7.9-2.1,19.5-0.5,29-1c2.6-1.4-0.5-8.5,2-10C1355.7,2699.7,1412.7,2699.7,1469.7,2699.7z M1313.7,2777.7
		c-7.2-15.1-13.4-31.2-15-52c-5.7,0-11.3,0-17,0C1284.7,2750.8,1295.5,2768,1313.7,2777.7z M1455.7,2777.7
		c17.1-10.6,28.2-27.1,31-52c-5.7,0-11.3,0-17,0C1468.9,2746.2,1460.5,2764.5,1455.7,2777.7z"/>
	<path d="M1281.7,2725.7c5.7,0,11.3,0,17,0c1.6,20.8,7.8,36.9,15,52C1295.5,2768,1284.7,2750.8,1281.7,2725.7z"/>
	<path d="M1469.7,2725.7c5.7,0,11.3,0,17,0c-2.8,24.8-13.9,41.4-31,52C1460.5,2764.5,1468.9,2746.2,1469.7,2725.7z"/>
</g>
<path d="M121.2,114.5L96.3,89.6c7.6-9,12.2-20.6,12.2-33.3c0-28.5-23.2-51.8-51.8-51.8C35.3,4.5,5,20.6,5,56.3
	c0,28.5,23.2,51.8,51.8,51.8c12.3,0,23.6-4.3,32.4-11.5l25,25c1,1,2.3,1.5,3.5,1.5s2.6-0.5,3.5-1.5
	C123.2,119.6,123.2,116.5,121.2,114.5z M56.7,102.1C31.5,102.1,11,81.5,11,56.3c0-31.6,26.8-45.8,45.8-45.8
	c25.2,0,45.8,20.5,45.8,45.8S82,102.1,56.7,102.1z"/>
<path d="M79.7,36.7c-2.1-2.1-5.8-4.7-11.6-4.7L68,32c-0.1,0-0.1,0-0.2,0c-5.3,0.4-9.2,2.5-12.1,6.6c-3.1-4.4-7.5-6.6-13-6.6l-0.4,0
	c-7.2,0.5-12.6,4.8-14.6,11.6c-2,7,0.4,14.7,3.7,19.3c2.7,3.7,6.2,6.8,9.6,9.7c0.5,0.4,1,0.9,1.6,1.3c2.1,1.8,3.8,3.1,5.6,4.4
	c1.7,1.2,3.4,2.5,5.8,4.4c0.5,0.4,1.1,0.6,1.8,0.6c0.7,0,1.4-0.3,1.9-0.7c1.8-1.7,4.2-3.5,6.7-5.4c4-3.1,8.5-6.5,12.6-10.8
	c3-3.3,6-7,7-13.4C84.9,46.2,83.5,40.5,79.7,36.7z M42.7,37.5c5.7,0,8.3,3.2,10.5,7.9c0.4,1,1.4,1.6,2.5,1.6c1.1,0,2-0.6,2.5-1.6
	c2-4.2,4-7.5,10-7.9c3.8,0,6.3,1.7,7.7,3.1c3.2,3.2,3.2,8.1,2.6,11.7c-0.7,4.9-3.1,7.7-5.6,10.4C69.1,66.6,64.8,70,61,72.9
	c-1.9,1.4-3.6,2.8-5.2,4.1c-1.6-1.3-3-2.3-4.3-3.2c-1.8-1.3-3.3-2.4-5.2-4c-0.5-0.4-1-0.9-1.6-1.4c-3.2-2.7-6.4-5.5-8.7-8.7
	c-2.4-3.4-4.4-9.4-2.9-14.6C33.8,42.5,36.1,38,42.7,37.5L42.7,37.5L42.7,37.5z"/>
</svg>
