<?xml version="1.0" encoding="utf-8"?>
<!-- Generator: Adobe Illustrator 21.0.2, SVG Export Plug-In . SVG Version: 6.00 Build 0)  -->
<svg version="1.1" id="Layer_1" xmlns="http://www.w3.org/2000/svg" xmlns:xlink="http://www.w3.org/1999/xlink" x="0px" y="0px"
	 viewBox="0 0 100 100.1" style="enable-background:new 0 0 100 100.1;" xml:space="preserve">
<path d="M66,18.7c0-3.1-2.5-5.6-5.6-5.6H39.6c-3.1,0-5.6,2.5-5.6,5.6v7.9H8v60.3h84V26.6H66V18.7z M37.7,18.7c0-1.1,0.9-2,2-2h20.7
	c1.1,0,2,0.9,2,2v7.9H37.7V18.7z M88.3,83.2H11.7V45.8l29.6,10v4.8c0,2.1,1.7,3.8,3.8,3.8h9.8c2.1,0,3.8-1.7,3.8-3.8v-4.8l29.6-10
	C88.3,45.8,88.3,83.2,88.3,83.2z M45,60.6v-9.8c0-0.1,0.1-0.1,0.1-0.1h9.8c0.1,0,0.1,0.1,0.1,0.1v9.8c0,0.1-0.1,0.1-0.1,0.1L45,60.6
	C45,60.7,45,60.7,45,60.6z M90.2,43.3L90.2,43.3L90.2,43.3L90.2,43.3z M88.3,30.3v11.6l-29.6,10v-1.1c0-2.1-1.7-3.8-3.8-3.8h-9.8
	c-2.1,0-3.8,1.7-3.8,3.8v1.1l-29.6-10V30.3H88.3z"/>
</svg>
