<?xml version="1.0" encoding="utf-8"?>
<!-- Generator: Adobe Illustrator 21.0.2, SVG Export Plug-In . SVG Version: 6.00 Build 0)  -->
<svg version="1.1" id="Layer_1" xmlns="http://www.w3.org/2000/svg" xmlns:xlink="http://www.w3.org/1999/xlink" x="0px" y="0px"
	 viewBox="0 0 64 64" style="enable-background:new 0 0 64 64;" xml:space="preserve">
<g>
	<path d="M52.2,22.9l-13,13c-2.8,2.8-7.3,2.8-10.1,0L25,31.8l0,0l0,0l-8.9-8.9c-0.5-0.5-1.3-0.5-1.8,0s-0.5,1.3,0,1.8l8,8l-6.5,6.5
		c-0.5,0.5-0.5,1.3,0,1.8c0.2,0.2,0.6,0.4,0.9,0.4s0.6-0.1,0.9-0.4l6.5-6.5l3.2,3.2c1.9,1.9,4.4,2.8,6.8,2.8s5-0.9,6.8-2.8l3.1-3.1
		l6.4,6.4c0.2,0.2,0.6,0.4,0.9,0.4s0.6-0.1,0.9-0.4c0.5-0.5,0.5-1.3,0-1.8l-6.4-6.4l8.2-8.2c0.5-0.5,0.5-1.3,0-1.8
		S52.7,22.4,52.2,22.9z"/>
	<path d="M60.3,19.2c-3.4-7-9.3-12.3-16.6-14.8C34,1,23.5,2.9,15.6,9.5c-4.1,3.4-7.2,7.8-8.9,12.8c-2.4,7-2.1,14.6,0.9,21.4l0.6,1.4
		l-1.2,1c-0.2,0.2-0.5,0.3-0.9,0.6l-4.6,3.1c-0.3,0.1-0.5,0.3-0.6,0.6l-0.2,0.4v0.4c0.1,0.8,1,1.5,2.7,2.1l0.3,0.1
		c2.2,0.8,4.3,1.2,6.1,1.4l0.7,0.1c0.3,0,0.7,0.1,1.1,0.1c1.1,0,2.1,0,3.3-0.1h1.2l0.5,0.4c2.4,1.9,5.1,3.3,8.1,4.3
		c3.2,1.1,6.4,1.6,9.6,1.6c6.6,0,13.2-2.3,18.5-6.7c4.1-3.4,7.2-7.8,8.9-12.8C64.2,34.2,63.7,26.3,60.3,19.2z M59.3,40.7
		c-1.6,4.6-4.4,8.6-8.2,11.7c-7.3,6-16.9,7.7-25.7,4.6c-2.7-0.9-5.2-2.3-7.4-4l-1.2-0.9h-1.5h-0.5l-0.4,0.1c-1,0.1-1.9,0.1-2.8,0.1
		c-0.3,0-0.6,0-1-0.1H10c-1.7-0.1-3.5-0.5-5.5-1.2l-0.2-0.1l0,0l3.2-2.2c0.4-0.3,0.8-0.5,1-0.7l2.7-2.1l-1.4-3.2
		c-2.7-6.2-3-13.1-0.8-19.5c1.6-4.6,4.4-8.7,8.2-11.7c7.3-6,16.9-7.7,25.7-4.6c6.7,2.2,12.1,7,15.2,13.4
		C61.2,26.7,61.6,34,59.3,40.7z"/>
</g>
</svg>
