<?xml version="1.0" encoding="utf-8"?>
<!-- Generator: Adobe Illustrator 21.0.2, SVG Export Plug-In . SVG Version: 6.00 Build 0)  -->
<svg version="1.1" id="Layer_1" xmlns="http://www.w3.org/2000/svg" xmlns:xlink="http://www.w3.org/1999/xlink" x="0px" y="0px"
	 viewBox="0 0 100 99.9" style="enable-background:new 0 0 100 99.9;" xml:space="preserve">
<g>
	<path d="M7.5,22.6h85c1.1,0,1.9-0.9,1.9-1.9s-0.9-1.9-1.9-1.9h-85c-1.1,0-1.9,0.9-1.9,1.9S6.4,22.6,7.5,22.6z"/>
	<path d="M92.5,48h-85c-1.1,0-1.9,0.9-1.9,1.9c0,1.1,0.9,1.9,1.9,1.9h85c1.1,0,1.9-0.9,1.9-1.9C94.4,48.9,93.6,48,92.5,48z"/>
	<path d="M92.5,77.3h-85c-1.1,0-1.9,0.9-1.9,1.9s0.9,1.9,1.9,1.9h85c1.1,0,1.9-0.9,1.9-1.9S93.6,77.3,92.5,77.3z"/>
</g>
</svg>
