<?xml version="1.0" encoding="utf-8"?>
<!-- Generator: Adobe Illustrator 21.0.2, SVG Export Plug-In . SVG Version: 6.00 Build 0)  -->
<svg version="1.1"
	 id="Layer_1" xmlns:cc="http://creativecommons.org/ns#" xmlns:dc="http://purl.org/dc/elements/1.1/" xmlns:inkscape="http://www.inkscape.org/namespaces/inkscape" xmlns:rdf="http://www.w3.org/1999/02/22-rdf-syntax-ns#" xmlns:sodipodi="http://sodipodi.sourceforge.net/DTD/sodipodi-0.dtd" xmlns:svg="http://www.w3.org/2000/svg"
	 xmlns="http://www.w3.org/2000/svg" xmlns:xlink="http://www.w3.org/1999/xlink" x="0px" y="0px" viewBox="0 0 100 99.5"
	 style="enable-background:new 0 0 100 99.5;" xml:space="preserve">
<path d="M34.9,33.7c-0.5,0.1-1,0.5-0.9,1.1c0,0.2,0.1,0.5,0.3,0.6l14.3,14.3L34.3,64.1c-0.4,0.4-0.4,1,0,1.4c0.4,0.4,1,0.4,1.4,0
	L50,51.2l14.3,14.3c0.4,0.4,1,0.4,1.4,0c0.4-0.4,0.4-1,0-1.4L51.4,49.8l14.3-14.3c0.4-0.4,0.4-1,0-1.4c-0.2-0.2-0.5-0.3-0.8-0.3
	c-0.3,0-0.5,0.1-0.7,0.3L50,48.3L35.7,34.1C35.5,33.8,35.2,33.7,34.9,33.7z"/>
</svg>
